<svg width="90" height="111" viewBox="0 0 90 111" fill="none" xmlns="http://www.w3.org/2000/svg">
<ellipse cx="42" cy="44.8437" rx="30" ry="29.6749" fill="#08372F"/>
<path d="M11.9311 61.9513C17.0111 57.8713 20.9911 54.5313 23.8711 51.9313C26.7511 49.2913 29.1711 46.5513 31.1311 43.7113C33.1311 40.8313 34.1311 38.0113 34.1311 35.2513C34.1311 32.6513 33.4911 30.6113 32.2111 29.1313C30.9711 27.6113 28.9511 26.8513 26.1511 26.8513C23.4311 26.8513 21.3111 27.7113 19.7911 29.4313C18.3111 31.1113 17.5111 33.3713 17.3911 36.2113H12.1111C12.2711 31.7313 13.6311 28.2713 16.1911 25.8313C18.7511 23.3913 22.0511 22.1713 26.0911 22.1713C30.2111 22.1713 33.4711 23.3113 35.8711 25.5913C38.3111 27.8713 39.5311 31.0113 39.5311 35.0113C39.5311 38.3313 38.5311 41.5713 36.5311 44.7313C34.5711 47.8513 32.3311 50.6113 29.8111 53.0113C27.2911 55.3713 24.0711 58.1313 20.1511 61.2913H40.7911V65.8513H11.9311V61.9513ZM74.7628 27.6913H53.7028V41.3713C54.6228 40.0913 55.9828 39.0513 57.7828 38.2513C59.5828 37.4113 61.5228 36.9913 63.6028 36.9913C66.9228 36.9913 69.6228 37.6913 71.7028 39.0913C73.7828 40.4513 75.2628 42.2313 76.1428 44.4313C77.0628 46.5913 77.5228 48.8913 77.5228 51.3313C77.5228 54.2113 76.9828 56.7913 75.9028 59.0713C74.8228 61.3513 73.1628 63.1513 70.9228 64.4713C68.7228 65.7913 65.9828 66.4513 62.7028 66.4513C58.5028 66.4513 55.1028 65.3713 52.5028 63.2113C49.9028 61.0513 48.3228 58.1713 47.7628 54.5713H53.1028C53.6228 56.8513 54.7228 58.6313 56.4028 59.9113C58.0828 61.1913 60.2028 61.8313 62.7628 61.8313C65.9228 61.8313 68.3028 60.8913 69.9028 59.0113C71.5028 57.0913 72.3028 54.5713 72.3028 51.4513C72.3028 48.3313 71.5028 45.9313 69.9028 44.2513C68.3028 42.5313 65.9428 41.6713 62.8228 41.6713C60.7028 41.6713 58.8428 42.1913 57.2428 43.2313C55.6828 44.2313 54.5428 45.6113 53.8228 47.3713H48.6628V22.8913H74.7628V27.6913Z" fill="#FFF2EB"/>
</svg>
