<svg width="17" height="16" viewBox="0 0 17 16" fill="none" xmlns="http://www.w3.org/2000/svg">
<path d="M14.5963 5.967L10.7181 5.42265L8.98444 2.02822C8.93709 1.93528 8.85919 1.86004 8.76296 1.81431C8.52162 1.69925 8.22835 1.79513 8.10768 2.02822L6.37401 5.42265L2.4958 5.967C2.38888 5.98175 2.29112 6.03043 2.21628 6.10419C2.12579 6.19401 2.07593 6.31485 2.07765 6.44016C2.07937 6.56546 2.13252 6.68499 2.22544 6.77246L5.03138 9.41454L4.36846 13.1453C4.35292 13.2321 4.36286 13.3214 4.39717 13.403C4.43147 13.4846 4.48877 13.5553 4.56255 13.607C4.63634 13.6588 4.72367 13.6895 4.81463 13.6958C4.9056 13.7021 4.99656 13.6836 5.0772 13.6425L8.54606 11.8811L12.0149 13.6425C12.1096 13.6911 12.2196 13.7074 12.325 13.6897C12.5908 13.6454 12.7695 13.402 12.7237 13.1453L12.0607 9.41454L14.8667 6.77246C14.943 6.70017 14.9935 6.60576 15.0087 6.5025C15.05 6.24434 14.8636 6.00536 14.5963 5.967V5.967Z" fill="#994C16"/>
</svg>
