<svg width="24" height="19" viewBox="0 0 24 19" fill="none" xmlns="http://www.w3.org/2000/svg">
<path d="M12 5.12125C11.2583 5.12125 10.5333 5.28901 9.91661 5.60333C9.29993 5.91764 8.81928 6.36439 8.53545 6.88708C8.25162 7.40977 8.17736 7.98492 8.32206 8.53981C8.46675 9.09469 8.8239 9.60438 9.34835 10.0044C9.8728 10.4045 10.541 10.6769 11.2684 10.7873C11.9958 10.8977 12.7498 10.841 13.4351 10.6245C14.1203 10.408 14.706 10.0414 15.118 9.57096C15.5301 9.10055 15.75 8.54751 15.75 7.98175C15.75 7.2231 15.3549 6.49552 14.6517 5.95907C13.9484 5.42262 12.9946 5.12125 12 5.12125Z" fill="#08372F"/>
<path d="M12 1.68863C9.9233 1.68863 7.89323 2.15837 6.16651 3.03846C4.4398 3.91854 3.09399 5.16944 2.29927 6.63297C1.50455 8.0965 1.29661 9.70693 1.70176 11.2606C2.1069 12.8143 3.10693 14.2414 4.57538 15.3616C6.04383 16.4817 7.91475 17.2445 9.95155 17.5536C11.9884 17.8626 14.0996 17.704 16.0182 17.0978C17.9368 16.4916 19.5767 15.465 20.7304 14.1478C21.8842 12.8307 22.5 11.2822 22.5 9.69804C22.4968 7.57456 21.3896 5.53874 19.4211 4.03721C17.4527 2.53568 14.7838 1.69105 12 1.68863ZM17.994 14.8046C17.9791 14.0542 17.5782 13.3383 16.8779 12.8112C16.1776 12.284 15.2339 11.9879 14.25 11.9864H9.75C8.76614 11.9879 7.82238 12.284 7.12207 12.8112C6.42176 13.3383 6.02095 14.0542 6.006 14.8046C4.64592 13.8782 3.6868 12.6586 3.25563 11.3072C2.82445 9.95575 2.94158 8.5363 3.59148 7.23678C4.24138 5.93726 5.39342 4.81897 6.89503 4.02999C8.39664 3.24101 10.177 2.81854 12.0004 2.81854C13.8237 2.81854 15.6041 3.24101 17.1057 4.02999C18.6073 4.81897 19.7594 5.93726 20.4093 7.23678C21.0592 8.5363 21.1763 9.95575 20.7451 11.3072C20.314 12.6586 19.3548 13.8782 17.9948 14.8046H17.994Z" fill="#08372F"/>
</svg>
